<svg width="1384" height="1110" viewBox="0 0 1384 1110" fill="none" xmlns="http://www.w3.org/2000/svg">
<g opacity="0.6" filter="url(#filter0_f_176_448)">
<ellipse cx="692" cy="555" rx="392" ry="255" fill="url(#paint0_radial_176_448)"/>
</g>
<g opacity="0.1">
<path d="M289.82 151.883H339.269V117H340.206V151.883H389.654V117H390.592V151.883H440.04V117H440.978V151.883H490.426V117H491.363V151.883H540.812V117H541.749V151.883H591.197V117H592.135V151.883H641.583V117H642.521V151.883H691.969V117H692.906V151.883H742.354V117H743.292V151.883H792.74V117H793.678V151.883H843.126V117H844.063V151.883H893.512V117H894.449V151.883H943.897V117H944.835V151.883H994.283V117H995.221V151.883H1044.67V117H1045.61V151.883H1095.05V117H1095.99V151.883H1129.94V152.82H1095.99V202.269H1129.94V203.206H1095.99V252.654H1129.94V253.592H1095.99V303.04H1129.94V303.978H1095.99V353.426H1129.94V354.363H1095.99V403.812H1129.94V404.749H1095.99V454.197H1129.94V455.135H1095.99V504.583H1129.94V505.521H1095.99V554.969H1129.94V555.906H1095.99V605.354H1129.94V606.292H1095.99V655.74H1129.94V656.678H1095.99V706.126H1129.94V707.063H1095.99V756.512H1129.94V757.449H1095.99V806.897H1129.94V807.835H1095.99V857.283H1129.94V858.221H1095.99V907.669H1129.94V908.606H1095.99V958.055H1129.94V958.992H1095.99V992.938H1095.05V958.992H1045.61V992.938H1044.67V958.992H995.221V992.938H994.283V958.992H944.835V992.938H943.897V958.992H894.449V992.938H893.512V958.992H844.063V992.938H843.126V958.992H793.678V992.938H792.74V958.992H743.292V992.938H742.354V958.992H692.906V992.938H691.969V958.992H642.521V992.938H641.583V958.992H592.135V992.938H591.197V958.992H541.749V992.938H540.812V958.992H491.363V992.938H490.426V958.992H440.978V992.938H440.04V958.992H390.592V992.938H389.654V958.992H340.206V992.938H339.269V958.992H289.82V992.938H288.883V958.992H254V958.055H288.883V908.606H254V907.669H288.883V858.221H254V857.283H288.883V807.835H254V806.897H288.883V757.449H254V756.512H288.883V707.063H254V706.126H288.883V656.678H254V655.74H288.883V606.292H254V605.354H288.883V555.906H254V554.969H288.883V505.521H254V504.583H288.883V455.135H254V454.197H288.883V404.749H254V403.812H288.883V354.363H254V353.426H288.883V303.978H254V303.04H288.883V253.592H254V252.654H288.883V203.206H254V202.269H288.883V152.82H254V151.883H288.883V117H289.82V151.883ZM289.82 958.055H339.269V908.606H289.82V958.055ZM340.206 958.055H389.654V908.606H340.206V958.055ZM390.592 958.055H440.04V908.606H390.592V958.055ZM440.978 958.055H490.426V908.606H440.978V958.055ZM491.363 958.055H540.812V908.606H491.363V958.055ZM541.749 958.055H591.197V908.606H541.749V958.055ZM592.135 958.055H641.583V908.606H592.135V958.055ZM642.521 958.055H691.969V908.606H642.521V958.055ZM692.906 958.055H742.354V908.606H692.906V958.055ZM743.292 958.055H792.74V908.606H743.292V958.055ZM793.678 958.055H843.126V908.606H793.678V958.055ZM844.063 958.055H893.512V908.606H844.063V958.055ZM894.449 958.055H943.897V908.606H894.449V958.055ZM944.835 958.055H994.283V908.606H944.835V958.055ZM995.221 958.055H1044.67V908.606H995.221V958.055ZM1045.61 958.055H1095.05V908.606H1045.61V958.055ZM289.82 907.669H339.269V858.221H289.82V907.669ZM340.206 907.669H389.654V858.221H340.206V907.669ZM390.592 907.669H440.04V858.221H390.592V907.669ZM440.978 907.669H490.426V858.221H440.978V907.669ZM491.363 907.669H540.812V858.221H491.363V907.669ZM541.749 907.669H591.197V858.221H541.749V907.669ZM592.135 907.669H641.583V858.221H592.135V907.669ZM642.521 907.669H691.969V858.221H642.521V907.669ZM692.906 907.669H742.354V858.221H692.906V907.669ZM743.292 907.669H792.74V858.221H743.292V907.669ZM793.678 907.669H843.126V858.221H793.678V907.669ZM844.063 907.669H893.512V858.221H844.063V907.669ZM894.449 907.669H943.897V858.221H894.449V907.669ZM944.835 907.669H994.283V858.221H944.835V907.669ZM995.221 907.669H1044.67V858.221H995.221V907.669ZM1045.61 907.669H1095.05V858.221H1045.61V907.669ZM289.82 857.283H339.269V807.835H289.82V857.283ZM340.206 857.283H389.654V807.835H340.206V857.283ZM390.592 857.283H440.04V807.835H390.592V857.283ZM440.978 857.283H490.426V807.835H440.978V857.283ZM491.363 857.283H540.812V807.835H491.363V857.283ZM541.749 857.283H591.197V807.835H541.749V857.283ZM592.135 857.283H641.583V807.835H592.135V857.283ZM642.521 857.283H691.969V807.835H642.521V857.283ZM692.906 857.283H742.354V807.835H692.906V857.283ZM743.292 857.283H792.74V807.835H743.292V857.283ZM793.678 857.283H843.126V807.835H793.678V857.283ZM844.063 857.283H893.512V807.835H844.063V857.283ZM894.449 857.283H943.897V807.835H894.449V857.283ZM944.835 857.283H994.283V807.835H944.835V857.283ZM995.221 857.283H1044.67V807.835H995.221V857.283ZM1045.61 857.283H1095.05V807.835H1045.61V857.283ZM289.82 806.897H339.269V757.449H289.82V806.897ZM340.206 806.897H389.654V757.449H340.206V806.897ZM390.592 806.897H440.04V757.449H390.592V806.897ZM440.978 806.897H490.426V757.449H440.978V806.897ZM491.363 806.897H540.812V757.449H491.363V806.897ZM541.749 806.897H591.197V757.449H541.749V806.897ZM592.135 806.897H641.583V757.449H592.135V806.897ZM642.521 806.897H691.969V757.449H642.521V806.897ZM692.906 806.897H742.354V757.449H692.906V806.897ZM743.292 806.897H792.74V757.449H743.292V806.897ZM793.678 806.897H843.126V757.449H793.678V806.897ZM844.063 806.897H893.512V757.449H844.063V806.897ZM894.449 806.897H943.897V757.449H894.449V806.897ZM944.835 806.897H994.283V757.449H944.835V806.897ZM995.221 806.897H1044.67V757.449H995.221V806.897ZM1045.61 806.897H1095.05V757.449H1045.61V806.897ZM289.82 756.512H339.269V707.063H289.82V756.512ZM340.206 756.512H389.654V707.063H340.206V756.512ZM390.592 756.512H440.04V707.063H390.592V756.512ZM440.978 756.512H490.426V707.063H440.978V756.512ZM491.363 756.512H540.812V707.063H491.363V756.512ZM541.749 756.512H591.197V707.063H541.749V756.512ZM592.135 756.512H641.583V707.063H592.135V756.512ZM642.521 756.512H691.969V707.063H642.521V756.512ZM692.906 756.512H742.354V707.063H692.906V756.512ZM743.292 756.512H792.74V707.063H743.292V756.512ZM793.678 756.512H843.126V707.063H793.678V756.512ZM844.063 756.512H893.512V707.063H844.063V756.512ZM894.449 756.512H943.897V707.063H894.449V756.512ZM944.835 756.512H994.283V707.063H944.835V756.512ZM995.221 756.512H1044.67V707.063H995.221V756.512ZM1045.61 756.512H1095.05V707.063H1045.61V756.512ZM289.82 706.126H339.269V656.678H289.82V706.126ZM340.206 706.126H389.654V656.678H340.206V706.126ZM390.592 706.126H440.04V656.678H390.592V706.126ZM440.978 706.126H490.426V656.678H440.978V706.126ZM491.363 706.126H540.812V656.678H491.363V706.126ZM541.749 706.126H591.197V656.678H541.749V706.126ZM592.135 706.126H641.583V656.678H592.135V706.126ZM642.521 706.126H691.969V656.678H642.521V706.126ZM692.906 706.126H742.354V656.678H692.906V706.126ZM743.292 706.126H792.74V656.678H743.292V706.126ZM793.678 706.126H843.126V656.678H793.678V706.126ZM844.063 706.126H893.512V656.678H844.063V706.126ZM894.449 706.126H943.897V656.678H894.449V706.126ZM944.835 706.126H994.283V656.678H944.835V706.126ZM995.221 706.126H1044.67V656.678H995.221V706.126ZM1045.61 706.126H1095.05V656.678H1045.61V706.126ZM289.82 655.74H339.269V606.292H289.82V655.74ZM340.206 655.74H389.654V606.292H340.206V655.74ZM390.592 655.74H440.04V606.292H390.592V655.74ZM440.978 655.74H490.426V606.292H440.978V655.74ZM491.363 655.74H540.812V606.292H491.363V655.74ZM541.749 655.74H591.197V606.292H541.749V655.74ZM592.135 655.74H641.583V606.292H592.135V655.74ZM642.521 655.74H691.969V606.292H642.521V655.74ZM692.906 655.74H742.354V606.292H692.906V655.74ZM743.292 655.74H792.74V606.292H743.292V655.74ZM793.678 655.74H843.126V606.292H793.678V655.74ZM844.063 655.74H893.512V606.292H844.063V655.74ZM894.449 655.74H943.897V606.292H894.449V655.74ZM944.835 655.74H994.283V606.292H944.835V655.74ZM995.221 655.74H1044.67V606.292H995.221V655.74ZM1045.61 655.74H1095.05V606.292H1045.61V655.74ZM289.82 605.354H339.269V555.906H289.82V605.354ZM340.206 605.354H389.654V555.906H340.206V605.354ZM390.592 605.354H440.04V555.906H390.592V605.354ZM440.978 605.354H490.426V555.906H440.978V605.354ZM491.363 605.354H540.812V555.906H491.363V605.354ZM541.749 605.354H591.197V555.906H541.749V605.354ZM592.135 605.354H641.583V555.906H592.135V605.354ZM642.521 605.354H691.969V555.906H642.521V605.354ZM692.906 605.354H742.354V555.906H692.906V605.354ZM743.292 605.354H792.74V555.906H743.292V605.354ZM793.678 605.354H843.126V555.906H793.678V605.354ZM844.063 605.354H893.512V555.906H844.063V605.354ZM894.449 605.354H943.897V555.906H894.449V605.354ZM944.835 605.354H994.283V555.906H944.835V605.354ZM995.221 605.354H1044.67V555.906H995.221V605.354ZM1045.61 605.354H1095.05V555.906H1045.61V605.354ZM289.82 554.969H339.269V505.521H289.82V554.969ZM340.206 554.969H389.654V505.521H340.206V554.969ZM390.592 554.969H440.04V505.521H390.592V554.969ZM440.978 554.969H490.426V505.521H440.978V554.969ZM491.363 554.969H540.812V505.521H491.363V554.969ZM541.749 554.969H591.197V505.521H541.749V554.969ZM592.135 554.969H641.583V505.521H592.135V554.969ZM642.521 554.969H691.969V505.521H642.521V554.969ZM692.906 554.969H742.354V505.521H692.906V554.969ZM743.292 554.969H792.74V505.521H743.292V554.969ZM793.678 554.969H843.126V505.521H793.678V554.969ZM844.063 554.969H893.512V505.521H844.063V554.969ZM894.449 554.969H943.897V505.521H894.449V554.969ZM944.835 554.969H994.283V505.521H944.835V554.969ZM995.221 554.969H1044.67V505.521H995.221V554.969ZM1045.61 554.969H1095.05V505.521H1045.61V554.969ZM289.82 504.583H339.269V455.135H289.82V504.583ZM340.206 504.583H389.654V455.135H340.206V504.583ZM390.592 504.583H440.04V455.135H390.592V504.583ZM440.978 504.583H490.426V455.135H440.978V504.583ZM491.363 504.583H540.812V455.135H491.363V504.583ZM541.749 504.583H591.197V455.135H541.749V504.583ZM592.135 504.583H641.583V455.135H592.135V504.583ZM642.521 504.583H691.969V455.135H642.521V504.583ZM692.906 504.583H742.354V455.135H692.906V504.583ZM743.292 504.583H792.74V455.135H743.292V504.583ZM793.678 504.583H843.126V455.135H793.678V504.583ZM844.063 504.583H893.512V455.135H844.063V504.583ZM894.449 504.583H943.897V455.135H894.449V504.583ZM944.835 504.583H994.283V455.135H944.835V504.583ZM995.221 504.583H1044.67V455.135H995.221V504.583ZM1045.61 504.583H1095.05V455.135H1045.61V504.583ZM289.82 454.197H339.269V404.749H289.82V454.197ZM340.206 454.197H389.654V404.749H340.206V454.197ZM390.592 454.197H440.04V404.749H390.592V454.197ZM440.978 454.197H490.426V404.749H440.978V454.197ZM491.363 454.197H540.812V404.749H491.363V454.197ZM541.749 454.197H591.197V404.749H541.749V454.197ZM592.135 454.197H641.583V404.749H592.135V454.197ZM642.521 454.197H691.969V404.749H642.521V454.197ZM692.906 454.197H742.354V404.749H692.906V454.197ZM743.292 454.197H792.74V404.749H743.292V454.197ZM793.678 454.197H843.126V404.749H793.678V454.197ZM844.063 454.197H893.512V404.749H844.063V454.197ZM894.449 454.197H943.897V404.749H894.449V454.197ZM944.835 454.197H994.283V404.749H944.835V454.197ZM995.221 454.197H1044.67V404.749H995.221V454.197ZM1045.61 454.197H1095.05V404.749H1045.61V454.197ZM289.82 403.812H339.269V354.363H289.82V403.812ZM340.206 403.812H389.654V354.363H340.206V403.812ZM390.592 403.812H440.04V354.363H390.592V403.812ZM440.978 403.812H490.426V354.363H440.978V403.812ZM491.363 403.812H540.812V354.363H491.363V403.812ZM541.749 403.812H591.197V354.363H541.749V403.812ZM592.135 403.812H641.583V354.363H592.135V403.812ZM642.521 403.812H691.969V354.363H642.521V403.812ZM692.906 403.812H742.354V354.363H692.906V403.812ZM743.292 403.812H792.74V354.363H743.292V403.812ZM793.678 403.812H843.126V354.363H793.678V403.812ZM844.063 403.812H893.512V354.363H844.063V403.812ZM894.449 403.812H943.897V354.363H894.449V403.812ZM944.835 403.812H994.283V354.363H944.835V403.812ZM995.221 403.812H1044.67V354.363H995.221V403.812ZM1045.61 403.812H1095.05V354.363H1045.61V403.812ZM289.82 353.426H339.269V303.978H289.82V353.426ZM340.206 353.426H389.654V303.978H340.206V353.426ZM390.592 353.426H440.04V303.978H390.592V353.426ZM440.978 353.426H490.426V303.978H440.978V353.426ZM491.363 353.426H540.812V303.978H491.363V353.426ZM541.749 353.426H591.197V303.978H541.749V353.426ZM592.135 353.426H641.583V303.978H592.135V353.426ZM642.521 353.426H691.969V303.978H642.521V353.426ZM692.906 353.426H742.354V303.978H692.906V353.426ZM743.292 353.426H792.74V303.978H743.292V353.426ZM793.678 353.426H843.126V303.978H793.678V353.426ZM844.063 353.426H893.512V303.978H844.063V353.426ZM894.449 353.426H943.897V303.978H894.449V353.426ZM944.835 353.426H994.283V303.978H944.835V353.426ZM995.221 353.426H1044.67V303.978H995.221V353.426ZM1045.61 353.426H1095.05V303.978H1045.61V353.426ZM289.82 303.04H339.269V253.592H289.82V303.04ZM340.206 303.04H389.654V253.592H340.206V303.04ZM390.592 303.04H440.04V253.592H390.592V303.04ZM440.978 303.04H490.426V253.592H440.978V303.04ZM491.363 303.04H540.812V253.592H491.363V303.04ZM541.749 303.04H591.197V253.592H541.749V303.04ZM592.135 303.04H641.583V253.592H592.135V303.04ZM642.521 303.04H691.969V253.592H642.521V303.04ZM692.906 303.04H742.354V253.592H692.906V303.04ZM743.292 303.04H792.74V253.592H743.292V303.04ZM793.678 303.04H843.126V253.592H793.678V303.04ZM844.063 303.04H893.512V253.592H844.063V303.04ZM894.449 303.04H943.897V253.592H894.449V303.04ZM944.835 303.04H994.283V253.592H944.835V303.04ZM995.221 303.04H1044.67V253.592H995.221V303.04ZM1045.61 303.04H1095.05V253.592H1045.61V303.04ZM289.82 252.654H339.269V203.206H289.82V252.654ZM340.206 252.654H389.654V203.206H340.206V252.654ZM390.592 252.654H440.04V203.206H390.592V252.654ZM440.978 252.654H490.426V203.206H440.978V252.654ZM491.363 252.654H540.812V203.206H491.363V252.654ZM541.749 252.654H591.197V203.206H541.749V252.654ZM592.135 252.654H641.583V203.206H592.135V252.654ZM642.521 252.654H691.969V203.206H642.521V252.654ZM692.906 252.654H742.354V203.206H692.906V252.654ZM743.292 252.654H792.74V203.206H743.292V252.654ZM793.678 252.654H843.126V203.206H793.678V252.654ZM844.063 252.654H893.512V203.206H844.063V252.654ZM894.449 252.654H943.897V203.206H894.449V252.654ZM944.835 252.654H994.283V203.206H944.835V252.654ZM995.221 252.654H1044.67V203.206H995.221V252.654ZM1045.61 252.654H1095.05V203.206H1045.61V252.654ZM289.82 202.269H339.269V152.82H289.82V202.269ZM340.206 202.269H389.654V152.82H340.206V202.269ZM390.592 202.269H440.04V152.82H390.592V202.269ZM440.978 202.269H490.426V152.82H440.978V202.269ZM491.363 202.269H540.812V152.82H491.363V202.269ZM541.749 202.269H591.197V152.82H541.749V202.269ZM592.135 202.269H641.583V152.82H592.135V202.269ZM642.521 202.269H691.969V152.82H642.521V202.269ZM692.906 202.269H742.354V152.82H692.906V202.269ZM743.292 202.269H792.74V152.82H743.292V202.269ZM793.678 202.269H843.126V152.82H793.678V202.269ZM844.063 202.269H893.512V152.82H844.063V202.269ZM894.449 202.269H943.897V152.82H894.449V202.269ZM944.835 202.269H994.283V152.82H944.835V202.269ZM995.221 202.269H1044.67V152.82H995.221V202.269ZM1045.61 202.269H1095.05V152.82H1045.61V202.269Z" fill="url(#paint1_radial_176_448)"/>
</g>
<defs>
<filter id="filter0_f_176_448" x="0" y="0" width="1384" height="1110" filterUnits="userSpaceOnUse" color-interpolation-filters="sRGB">
<feFlood flood-opacity="0" result="BackgroundImageFix"/>
<feBlend mode="normal" in="SourceGraphic" in2="BackgroundImageFix" result="shape"/>
<feGaussianBlur stdDeviation="150" result="effect1_foregroundBlur_176_448"/>
</filter>
<radialGradient id="paint0_radial_176_448" cx="0" cy="0" r="1" gradientUnits="userSpaceOnUse" gradientTransform="translate(692 820.307) rotate(-90) scale(445.487 684.826)">
<stop stop-color="#D9D9D9"/>
<stop offset="0.51" stop-color="#007CFF"/>
<stop offset="1" stop-color="#007CFF"/>
</radialGradient>
<radialGradient id="paint1_radial_176_448" cx="0" cy="0" r="1" gradientUnits="userSpaceOnUse" gradientTransform="translate(691.969 554.969) rotate(90) scale(437.969)">
<stop/>
<stop offset="1" stop-opacity="0"/>
</radialGradient>
</defs>
</svg>
