<svg width="17" height="16" viewBox="0 0 17 16" fill="none" xmlns="http://www.w3.org/2000/svg">
<path d="M7.81977 1.44859C8.07019 0.677881 9.16054 0.677879 9.41096 1.44859L10.6813 5.35837C10.7933 5.70304 11.1145 5.93641 11.4769 5.93641H15.5879C16.3983 5.93641 16.7352 6.97339 16.0796 7.44972L12.7538 9.8661C12.4606 10.0791 12.3379 10.4567 12.4499 10.8014L13.7202 14.7112C13.9706 15.4819 13.0885 16.1228 12.4329 15.6464L9.10707 13.2301C8.81388 13.017 8.41686 13.017 8.12366 13.2301L4.7978 15.6464C4.1422 16.1228 3.26008 15.4819 3.5105 14.7112L4.78087 10.8014C4.89286 10.4567 4.77017 10.0791 4.47698 9.8661L1.15112 7.44972C0.495512 6.97339 0.832448 5.93641 1.64282 5.93641H5.75381C6.11622 5.93641 6.43741 5.70304 6.54941 5.35837L7.81977 1.44859Z" fill="#FFCC00"/>
</svg>
