<svg width="1440" height="780" viewBox="0 0 1440 780" fill="none" xmlns="http://www.w3.org/2000/svg">
<g opacity="0.1">
<rect x="-29.2925" y="0.25" width="115.564" height="110.955" stroke="#111111" stroke-opacity="0.5" stroke-width="0.5"/>
<rect x="85.9978" y="0.25" width="115.564" height="110.955" stroke="#111111" stroke-opacity="0.5" stroke-width="0.5"/>
<rect x="201.288" y="0.25" width="115.564" height="110.955" stroke="#111111" stroke-opacity="0.5" stroke-width="0.5"/>
<rect x="316.327" width="116.064" height="111.455" fill="#000AFF" fill-opacity="0.3"/>
<rect x="431.867" y="0.25" width="115.564" height="110.955" stroke="#111111" stroke-opacity="0.5" stroke-width="0.5"/>
<rect x="547.157" y="0.25" width="115.564" height="110.955" stroke="#111111" stroke-opacity="0.5" stroke-width="0.5"/>
<rect x="662.446" y="0.25" width="115.564" height="110.955" stroke="#111111" stroke-opacity="0.5" stroke-width="0.5"/>
<rect x="777.736" y="0.25" width="115.564" height="110.955" stroke="#111111" stroke-opacity="0.5" stroke-width="0.5"/>
<rect x="892.777" width="116.064" height="111.455" fill="#000AFF" fill-opacity="0.3"/>
<rect x="1008.32" y="0.25" width="115.564" height="110.955" stroke="#111111" stroke-opacity="0.5" stroke-width="0.5"/>
<rect x="1123.61" y="0.25" width="115.564" height="110.955" stroke="#111111" stroke-opacity="0.5" stroke-width="0.5"/>
<rect x="1238.9" y="0.25" width="115.564" height="110.955" stroke="#111111" stroke-opacity="0.5" stroke-width="0.5"/>
<rect x="1354.19" y="0.25" width="115.564" height="110.955" stroke="#111111" stroke-opacity="0.5" stroke-width="0.5"/>
<rect x="-29.5425" y="110.712" width="116.064" height="111.455" fill="#000AFF" fill-opacity="0.3"/>
<rect x="85.9978" y="110.962" width="115.564" height="110.955" stroke="#111111" stroke-opacity="0.5" stroke-width="0.5"/>
<rect x="201.288" y="110.962" width="115.564" height="110.955" stroke="#111111" stroke-opacity="0.5" stroke-width="0.5"/>
<rect x="316.577" y="110.962" width="115.564" height="110.955" stroke="#111111" stroke-opacity="0.5" stroke-width="0.5"/>
<rect x="431.867" y="110.962" width="115.564" height="110.955" stroke="#111111" stroke-opacity="0.5" stroke-width="0.5"/>
<rect x="547.157" y="110.962" width="115.564" height="110.955" stroke="#111111" stroke-opacity="0.5" stroke-width="0.5"/>
<rect x="662.446" y="110.962" width="115.564" height="110.955" stroke="#111111" stroke-opacity="0.5" stroke-width="0.5"/>
<rect x="777.736" y="110.962" width="115.564" height="110.955" stroke="#111111" stroke-opacity="0.5" stroke-width="0.5"/>
<rect x="893.027" y="110.962" width="115.564" height="110.955" stroke="#111111" stroke-opacity="0.5" stroke-width="0.5"/>
<rect x="1008.32" y="110.962" width="115.564" height="110.955" stroke="#111111" stroke-opacity="0.5" stroke-width="0.5"/>
<rect x="1123.61" y="110.962" width="115.564" height="110.955" stroke="#111111" stroke-opacity="0.5" stroke-width="0.5"/>
<rect x="1238.65" y="110.712" width="116.064" height="111.455" fill="#000AFF" fill-opacity="0.3"/>
<rect x="1354.19" y="110.962" width="115.564" height="110.955" stroke="#111111" stroke-opacity="0.5" stroke-width="0.5"/>
<rect x="-29.2925" y="221.674" width="115.564" height="110.955" stroke="#111111" stroke-opacity="0.5" stroke-width="0.5"/>
<rect x="85.9978" y="221.674" width="115.564" height="110.955" stroke="#111111" stroke-opacity="0.5" stroke-width="0.5"/>
<rect x="201.038" y="221.424" width="116.064" height="111.455" fill="#000AFF" fill-opacity="0.3"/>
<rect x="316.577" y="221.674" width="115.564" height="110.955" stroke="#111111" stroke-opacity="0.5" stroke-width="0.5"/>
<rect x="431.867" y="221.674" width="115.564" height="110.955" stroke="#111111" stroke-opacity="0.5" stroke-width="0.5"/>
<rect x="547.157" y="221.674" width="115.564" height="110.955" stroke="#111111" stroke-opacity="0.5" stroke-width="0.5"/>
<rect x="662.446" y="221.674" width="115.564" height="110.955" stroke="#111111" stroke-opacity="0.5" stroke-width="0.5"/>
<rect x="777.736" y="221.674" width="115.564" height="110.955" stroke="#111111" stroke-opacity="0.5" stroke-width="0.5"/>
<rect x="893.027" y="221.674" width="115.564" height="110.955" stroke="#111111" stroke-opacity="0.5" stroke-width="0.5"/>
<rect x="1008.32" y="221.674" width="115.564" height="110.955" stroke="#111111" stroke-opacity="0.5" stroke-width="0.5"/>
<rect x="1123.61" y="221.674" width="115.564" height="110.955" stroke="#111111" stroke-opacity="0.5" stroke-width="0.5"/>
<rect x="1238.9" y="221.674" width="115.564" height="110.955" stroke="#111111" stroke-opacity="0.5" stroke-width="0.5"/>
<rect x="1354.19" y="221.674" width="115.564" height="110.955" stroke="#111111" stroke-opacity="0.5" stroke-width="0.5"/>
<rect x="-29.2925" y="332.386" width="115.564" height="110.955" stroke="#111111" stroke-opacity="0.5" stroke-width="0.5"/>
<rect x="85.9978" y="332.386" width="115.564" height="110.955" stroke="#111111" stroke-opacity="0.5" stroke-width="0.5"/>
<rect x="201.288" y="332.386" width="115.564" height="110.955" stroke="#111111" stroke-opacity="0.5" stroke-width="0.5"/>
<rect x="316.577" y="332.386" width="115.564" height="110.955" stroke="#111111" stroke-opacity="0.5" stroke-width="0.5"/>
<rect x="431.867" y="332.386" width="115.564" height="110.955" stroke="#111111" stroke-opacity="0.5" stroke-width="0.5"/>
<rect x="547.157" y="332.386" width="115.564" height="110.955" stroke="#111111" stroke-opacity="0.5" stroke-width="0.5"/>
<rect x="662.446" y="332.386" width="115.564" height="110.955" stroke="#111111" stroke-opacity="0.5" stroke-width="0.5"/>
<rect x="777.736" y="332.386" width="115.564" height="110.955" stroke="#111111" stroke-opacity="0.5" stroke-width="0.5"/>
<rect x="893.027" y="332.386" width="115.564" height="110.955" stroke="#111111" stroke-opacity="0.5" stroke-width="0.5"/>
<rect x="1008.32" y="332.386" width="115.564" height="110.955" stroke="#111111" stroke-opacity="0.5" stroke-width="0.5"/>
<rect x="1123.36" y="332.136" width="116.064" height="111.455" fill="#000AFF" fill-opacity="0.3"/>
<rect x="1238.9" y="332.386" width="115.564" height="110.955" stroke="#111111" stroke-opacity="0.5" stroke-width="0.5"/>
<rect x="1354.19" y="332.386" width="115.564" height="110.955" stroke="#111111" stroke-opacity="0.5" stroke-width="0.5"/>
<rect x="-30" y="442.848" width="116.064" height="111.455" fill="#000AFF" fill-opacity="0.3"/>
<rect x="85.9978" y="443.098" width="115.564" height="110.955" stroke="#111111" stroke-opacity="0.5" stroke-width="0.5"/>
<rect x="201.288" y="443.098" width="115.564" height="110.955" stroke="#111111" stroke-opacity="0.5" stroke-width="0.5"/>
<rect x="316.577" y="443.098" width="115.564" height="110.955" stroke="#111111" stroke-opacity="0.5" stroke-width="0.5"/>
<rect x="431.867" y="443.098" width="115.564" height="110.955" stroke="#111111" stroke-opacity="0.5" stroke-width="0.5"/>
<rect x="546.907" y="442.848" width="116.064" height="111.455" fill="#000AFF" fill-opacity="0.3"/>
<rect x="662.446" y="443.098" width="115.564" height="110.955" stroke="#111111" stroke-opacity="0.5" stroke-width="0.5"/>
<rect x="777.736" y="443.098" width="115.564" height="110.955" stroke="#111111" stroke-opacity="0.5" stroke-width="0.5"/>
<rect x="893.027" y="443.098" width="115.564" height="110.955" stroke="#111111" stroke-opacity="0.5" stroke-width="0.5"/>
<rect x="1008.32" y="443.098" width="115.564" height="110.955" stroke="#111111" stroke-opacity="0.5" stroke-width="0.5"/>
<rect x="1123.61" y="443.098" width="115.564" height="110.955" stroke="#111111" stroke-opacity="0.5" stroke-width="0.5"/>
<rect x="1238.9" y="443.098" width="115.564" height="110.955" stroke="#111111" stroke-opacity="0.5" stroke-width="0.5"/>
<rect x="1353.94" y="442.848" width="116.064" height="111.455" fill="#000AFF" fill-opacity="0.3"/>
</g>
<rect x="-29.5425" y="114.303" width="1499.54" height="665" fill="url(#paint0_radial_150_2259)"/>
<rect x="-29.5425" y="114.303" width="1499.54" height="665" fill="url(#paint1_linear_150_2259)"/>
<defs>
<radialGradient id="paint0_radial_150_2259" cx="0" cy="0" r="1" gradientUnits="userSpaceOnUse" gradientTransform="translate(720 316.303) rotate(-90) scale(171 323.069)">
<stop stop-color="#FAFBFC" stop-opacity="0.8"/>
<stop offset="1" stop-color="#FAFBFC" stop-opacity="0"/>
</radialGradient>
<linearGradient id="paint1_linear_150_2259" x1="720" y1="599.803" x2="720" y2="387.803" gradientUnits="userSpaceOnUse">
<stop stop-color="#FAFBFC"/>
<stop offset="1" stop-color="#FAFBFC" stop-opacity="0"/>
</linearGradient>
</defs>
</svg>
